<svg width="470" height="154" viewBox="0 0 470 154" fill="none" xmlns="http://www.w3.org/2000/svg">
<g clip-path="url(#clip0_1510_18759)">
<mask id="mask0_1510_18759" style="mask-type:alpha" maskUnits="userSpaceOnUse" x="0" y="0" width="470" height="154">
<rect width="470" height="154" fill="url(#paint0_radial_1510_18759)"/>
</mask>
<g mask="url(#mask0_1510_18759)">
<path fill-rule="evenodd" clip-rule="evenodd" d="M5 9C5 7.89543 5.89543 7 7 7H15C16.1046 7 17 7.89543 17 9V17C17 18.1046 16.1046 19 15 19H7C5.89543 19 5 18.1046 5 17V9ZM21 9C21 7.89543 21.8954 7 23 7H31C32.1046 7 33 7.89543 33 9V17C33 18.1046 32.1046 19 31 19H23C21.8954 19 21 18.1046 21 17V9ZM39 7C37.8954 7 37 7.89543 37 9V17C37 18.1046 37.8954 19 39 19H47C48.1046 19 49 18.1046 49 17V9C49 7.89543 48.1046 7 47 7H39ZM53 9C53 7.89543 53.8954 7 55 7H63C64.1046 7 65 7.89543 65 9V17C65 18.1046 64.1046 19 63 19H55C53.8954 19 53 18.1046 53 17V9ZM71 7C69.8954 7 69 7.89543 69 9V17C69 18.1046 69.8954 19 71 19H79C80.1046 19 81 18.1046 81 17V9C81 7.89543 80.1046 7 79 7H71ZM85 9C85 7.89543 85.8954 7 87 7H95C96.1046 7 97 7.89543 97 9V17C97 18.1046 96.1046 19 95 19H87C85.8954 19 85 18.1046 85 17V9ZM103 7C101.895 7 101 7.89543 101 9V17C101 18.1046 101.895 19 103 19H111C112.105 19 113 18.1046 113 17V9C113 7.89543 112.105 7 111 7H103ZM117 9C117 7.89543 117.895 7 119 7H127C128.105 7 129 7.89543 129 9V17C129 18.1046 128.105 19 127 19H119C117.895 19 117 18.1046 117 17V9ZM135 7C133.895 7 133 7.89543 133 9V17C133 18.1046 133.895 19 135 19H143C144.105 19 145 18.1046 145 17V9C145 7.89543 144.105 7 143 7H135ZM149 9C149 7.89543 149.895 7 151 7H159C160.105 7 161 7.89543 161 9V17C161 18.1046 160.105 19 159 19H151C149.895 19 149 18.1046 149 17V9ZM167 7C165.895 7 165 7.89543 165 9V17C165 18.1046 165.895 19 167 19H175C176.105 19 177 18.1046 177 17V9C177 7.89543 176.105 7 175 7H167ZM181 9C181 7.89543 181.895 7 183 7H191C192.105 7 193 7.89543 193 9V17C193 18.1046 192.105 19 191 19H183C181.895 19 181 18.1046 181 17V9ZM199 7C197.895 7 197 7.89543 197 9V17C197 18.1046 197.895 19 199 19H207C208.105 19 209 18.1046 209 17V9C209 7.89543 208.105 7 207 7H199ZM213 9C213 7.89543 213.895 7 215 7H223C224.105 7 225 7.89543 225 9V17C225 18.1046 224.105 19 223 19H215C213.895 19 213 18.1046 213 17V9ZM231 7C229.895 7 229 7.89543 229 9V17C229 18.1046 229.895 19 231 19H239C240.105 19 241 18.1046 241 17V9C241 7.89543 240.105 7 239 7H231ZM245 9C245 7.89543 245.895 7 247 7H255C256.105 7 257 7.89543 257 9V17C257 18.1046 256.105 19 255 19H247C245.895 19 245 18.1046 245 17V9ZM263 7C261.895 7 261 7.89543 261 9V17C261 18.1046 261.895 19 263 19H271C272.105 19 273 18.1046 273 17V9C273 7.89543 272.105 7 271 7H263ZM277 9C277 7.89543 277.895 7 279 7H287C288.105 7 289 7.89543 289 9V17C289 18.1046 288.105 19 287 19H279C277.895 19 277 18.1046 277 17V9ZM295 7C293.895 7 293 7.89543 293 9V17C293 18.1046 293.895 19 295 19H303C304.105 19 305 18.1046 305 17V9C305 7.89543 304.105 7 303 7H295ZM309 9C309 7.89543 309.895 7 311 7H319C320.105 7 321 7.89543 321 9V17C321 18.1046 320.105 19 319 19H311C309.895 19 309 18.1046 309 17V9ZM327 7C325.895 7 325 7.89543 325 9V17C325 18.1046 325.895 19 327 19H335C336.105 19 337 18.1046 337 17V9C337 7.89543 336.105 7 335 7H327ZM341 9C341 7.89543 341.895 7 343 7H351C352.105 7 353 7.89543 353 9V17C353 18.1046 352.105 19 351 19H343C341.895 19 341 18.1046 341 17V9ZM359 7C357.895 7 357 7.89543 357 9V17C357 18.1046 357.895 19 359 19H367C368.105 19 369 18.1046 369 17V9C369 7.89543 368.105 7 367 7H359ZM373 9C373 7.89543 373.895 7 375 7H383C384.105 7 385 7.89543 385 9V17C385 18.1046 384.105 19 383 19H375C373.895 19 373 18.1046 373 17V9ZM391 7C389.895 7 389 7.89543 389 9V17C389 18.1046 389.895 19 391 19H399C400.105 19 401 18.1046 401 17V9C401 7.89543 400.105 7 399 7H391ZM405 9C405 7.89543 405.895 7 407 7H415C416.105 7 417 7.89543 417 9V17C417 18.1046 416.105 19 415 19H407C405.895 19 405 18.1046 405 17V9ZM423 7C421.895 7 421 7.89543 421 9V17C421 18.1046 421.895 19 423 19H431C432.105 19 433 18.1046 433 17V9C433 7.89543 432.105 7 431 7H423ZM437 9C437 7.89543 437.895 7 439 7H447C448.105 7 449 7.89543 449 9V17C449 18.1046 448.105 19 447 19H439C437.895 19 437 18.1046 437 17V9ZM455 7C453.895 7 453 7.89543 453 9V17C453 18.1046 453.895 19 455 19H463C464.105 19 465 18.1046 465 17V9C465 7.89543 464.105 7 463 7H455ZM5 25C5 23.8954 5.89543 23 7 23H15C16.1046 23 17 23.8954 17 25V33C17 34.1046 16.1046 35 15 35H7C5.89543 35 5 34.1046 5 33V25ZM21 25C21 23.8954 21.8954 23 23 23H31C32.1046 23 33 23.8954 33 25V33C33 34.1046 32.1046 35 31 35H23C21.8954 35 21 34.1046 21 33V25ZM39 23C37.8954 23 37 23.8954 37 25V33C37 34.1046 37.8954 35 39 35H47C48.1046 35 49 34.1046 49 33V25C49 23.8954 48.1046 23 47 23H39ZM53 25C53 23.8954 53.8954 23 55 23H63C64.1046 23 65 23.8954 65 25V33C65 34.1046 64.1046 35 63 35H55C53.8954 35 53 34.1046 53 33V25ZM71 23C69.8954 23 69 23.8954 69 25V33C69 34.1046 69.8954 35 71 35H79C80.1046 35 81 34.1046 81 33V25C81 23.8954 80.1046 23 79 23H71ZM85 25C85 23.8954 85.8954 23 87 23H95C96.1046 23 97 23.8954 97 25V33C97 34.1046 96.1046 35 95 35H87C85.8954 35 85 34.1046 85 33V25ZM103 23C101.895 23 101 23.8954 101 25V33C101 34.1046 101.895 35 103 35H111C112.105 35 113 34.1046 113 33V25C113 23.8954 112.105 23 111 23H103ZM117 25C117 23.8954 117.895 23 119 23H127C128.105 23 129 23.8954 129 25V33C129 34.1046 128.105 35 127 35H119C117.895 35 117 34.1046 117 33V25ZM135 23C133.895 23 133 23.8954 133 25V33C133 34.1046 133.895 35 135 35H143C144.105 35 145 34.1046 145 33V25C145 23.8954 144.105 23 143 23H135ZM149 25C149 23.8954 149.895 23 151 23H159C160.105 23 161 23.8954 161 25V33C161 34.1046 160.105 35 159 35H151C149.895 35 149 34.1046 149 33V25ZM167 23C165.895 23 165 23.8954 165 25V33C165 34.1046 165.895 35 167 35H175C176.105 35 177 34.1046 177 33V25C177 23.8954 176.105 23 175 23H167ZM181 25C181 23.8954 181.895 23 183 23H191C192.105 23 193 23.8954 193 25V33C193 34.1046 192.105 35 191 35H183C181.895 35 181 34.1046 181 33V25ZM199 23C197.895 23 197 23.8954 197 25V33C197 34.1046 197.895 35 199 35H207C208.105 35 209 34.1046 209 33V25C209 23.8954 208.105 23 207 23H199ZM213 25C213 23.8954 213.895 23 215 23H223C224.105 23 225 23.8954 225 25V33C225 34.1046 224.105 35 223 35H215C213.895 35 213 34.1046 213 33V25ZM231 23C229.895 23 229 23.8954 229 25V33C229 34.1046 229.895 35 231 35H239C240.105 35 241 34.1046 241 33V25C241 23.8954 240.105 23 239 23H231ZM245 25C245 23.8954 245.895 23 247 23H255C256.105 23 257 23.8954 257 25V33C257 34.1046 256.105 35 255 35H247C245.895 35 245 34.1046 245 33V25ZM263 23C261.895 23 261 23.8954 261 25V33C261 34.1046 261.895 35 263 35H271C272.105 35 273 34.1046 273 33V25C273 23.8954 272.105 23 271 23H263ZM277 25C277 23.8954 277.895 23 279 23H287C288.105 23 289 23.8954 289 25V33C289 34.1046 288.105 35 287 35H279C277.895 35 277 34.1046 277 33V25ZM295 23C293.895 23 293 23.8954 293 25V33C293 34.1046 293.895 35 295 35H303C304.105 35 305 34.1046 305 33V25C305 23.8954 304.105 23 303 23H295ZM309 25C309 23.8954 309.895 23 311 23H319C320.105 23 321 23.8954 321 25V33C321 34.1046 320.105 35 319 35H311C309.895 35 309 34.1046 309 33V25ZM327 23C325.895 23 325 23.8954 325 25V33C325 34.1046 325.895 35 327 35H335C336.105 35 337 34.1046 337 33V25C337 23.8954 336.105 23 335 23H327ZM341 25C341 23.8954 341.895 23 343 23H351C352.105 23 353 23.8954 353 25V33C353 34.1046 352.105 35 351 35H343C341.895 35 341 34.1046 341 33V25ZM359 23C357.895 23 357 23.8954 357 25V33C357 34.1046 357.895 35 359 35H367C368.105 35 369 34.1046 369 33V25C369 23.8954 368.105 23 367 23H359ZM373 25C373 23.8954 373.895 23 375 23H383C384.105 23 385 23.8954 385 25V33C385 34.1046 384.105 35 383 35H375C373.895 35 373 34.1046 373 33V25ZM391 23C389.895 23 389 23.8954 389 25V33C389 34.1046 389.895 35 391 35H399C400.105 35 401 34.1046 401 33V25C401 23.8954 400.105 23 399 23H391ZM405 25C405 23.8954 405.895 23 407 23H415C416.105 23 417 23.8954 417 25V33C417 34.1046 416.105 35 415 35H407C405.895 35 405 34.1046 405 33V25ZM423 23C421.895 23 421 23.8954 421 25V33C421 34.1046 421.895 35 423 35H431C432.105 35 433 34.1046 433 33V25C433 23.8954 432.105 23 431 23H423ZM437 25C437 23.8954 437.895 23 439 23H447C448.105 23 449 23.8954 449 25V33C449 34.1046 448.105 35 447 35H439C437.895 35 437 34.1046 437 33V25ZM455 23C453.895 23 453 23.8954 453 25V33C453 34.1046 453.895 35 455 35H463C464.105 35 465 34.1046 465 33V25C465 23.8954 464.105 23 463 23H455ZM7 39C5.89543 39 5 39.8954 5 41V49C5 50.1046 5.89543 51 7 51H15C16.1046 51 17 50.1046 17 49V41C17 39.8954 16.1046 39 15 39H7ZM23 39C21.8954 39 21 39.8954 21 41V49C21 50.1046 21.8954 51 23 51H31C32.1046 51 33 50.1046 33 49V41C33 39.8954 32.1046 39 31 39H23ZM37 41C37 39.8954 37.8954 39 39 39H47C48.1046 39 49 39.8954 49 41V49C49 50.1046 48.1046 51 47 51H39C37.8954 51 37 50.1046 37 49V41ZM55 39C53.8954 39 53 39.8954 53 41V49C53 50.1046 53.8954 51 55 51H63C64.1046 51 65 50.1046 65 49V41C65 39.8954 64.1046 39 63 39H55ZM69 41C69 39.8954 69.8954 39 71 39H79C80.1046 39 81 39.8954 81 41V49C81 50.1046 80.1046 51 79 51H71C69.8954 51 69 50.1046 69 49V41ZM87 39C85.8954 39 85 39.8954 85 41V49C85 50.1046 85.8954 51 87 51H95C96.1046 51 97 50.1046 97 49V41C97 39.8954 96.1046 39 95 39H87ZM101 41C101 39.8954 101.895 39 103 39H111C112.105 39 113 39.8954 113 41V49C113 50.1046 112.105 51 111 51H103C101.895 51 101 50.1046 101 49V41ZM119 39C117.895 39 117 39.8954 117 41V49C117 50.1046 117.895 51 119 51H127C128.105 51 129 50.1046 129 49V41C129 39.8954 128.105 39 127 39H119ZM133 41C133 39.8954 133.895 39 135 39H143C144.105 39 145 39.8954 145 41V49C145 50.1046 144.105 51 143 51H135C133.895 51 133 50.1046 133 49V41ZM151 39C149.895 39 149 39.8954 149 41V49C149 50.1046 149.895 51 151 51H159C160.105 51 161 50.1046 161 49V41C161 39.8954 160.105 39 159 39H151ZM165 41C165 39.8954 165.895 39 167 39H175C176.105 39 177 39.8954 177 41V49C177 50.1046 176.105 51 175 51H167C165.895 51 165 50.1046 165 49V41ZM183 39C181.895 39 181 39.8954 181 41V49C181 50.1046 181.895 51 183 51H191C192.105 51 193 50.1046 193 49V41C193 39.8954 192.105 39 191 39H183ZM197 41C197 39.8954 197.895 39 199 39H207C208.105 39 209 39.8954 209 41V49C209 50.1046 208.105 51 207 51H199C197.895 51 197 50.1046 197 49V41ZM215 39C213.895 39 213 39.8954 213 41V49C213 50.1046 213.895 51 215 51H223C224.105 51 225 50.1046 225 49V41C225 39.8954 224.105 39 223 39H215ZM229 41C229 39.8954 229.895 39 231 39H239C240.105 39 241 39.8954 241 41V49C241 50.1046 240.105 51 239 51H231C229.895 51 229 50.1046 229 49V41ZM247 39C245.895 39 245 39.8954 245 41V49C245 50.1046 245.895 51 247 51H255C256.105 51 257 50.1046 257 49V41C257 39.8954 256.105 39 255 39H247ZM261 41C261 39.8954 261.895 39 263 39H271C272.105 39 273 39.8954 273 41V49C273 50.1046 272.105 51 271 51H263C261.895 51 261 50.1046 261 49V41ZM279 39C277.895 39 277 39.8954 277 41V49C277 50.1046 277.895 51 279 51H287C288.105 51 289 50.1046 289 49V41C289 39.8954 288.105 39 287 39H279ZM293 41C293 39.8954 293.895 39 295 39H303C304.105 39 305 39.8954 305 41V49C305 50.1046 304.105 51 303 51H295C293.895 51 293 50.1046 293 49V41ZM311 39C309.895 39 309 39.8954 309 41V49C309 50.1046 309.895 51 311 51H319C320.105 51 321 50.1046 321 49V41C321 39.8954 320.105 39 319 39H311ZM325 41C325 39.8954 325.895 39 327 39H335C336.105 39 337 39.8954 337 41V49C337 50.1046 336.105 51 335 51H327C325.895 51 325 50.1046 325 49V41ZM343 39C341.895 39 341 39.8954 341 41V49C341 50.1046 341.895 51 343 51H351C352.105 51 353 50.1046 353 49V41C353 39.8954 352.105 39 351 39H343ZM357 41C357 39.8954 357.895 39 359 39H367C368.105 39 369 39.8954 369 41V49C369 50.1046 368.105 51 367 51H359C357.895 51 357 50.1046 357 49V41ZM375 39C373.895 39 373 39.8954 373 41V49C373 50.1046 373.895 51 375 51H383C384.105 51 385 50.1046 385 49V41C385 39.8954 384.105 39 383 39H375ZM389 41C389 39.8954 389.895 39 391 39H399C400.105 39 401 39.8954 401 41V49C401 50.1046 400.105 51 399 51H391C389.895 51 389 50.1046 389 49V41ZM407 39C405.895 39 405 39.8954 405 41V49C405 50.1046 405.895 51 407 51H415C416.105 51 417 50.1046 417 49V41C417 39.8954 416.105 39 415 39H407ZM421 41C421 39.8954 421.895 39 423 39H431C432.105 39 433 39.8954 433 41V49C433 50.1046 432.105 51 431 51H423C421.895 51 421 50.1046 421 49V41ZM439 39C437.895 39 437 39.8954 437 41V49C437 50.1046 437.895 51 439 51H447C448.105 51 449 50.1046 449 49V41C449 39.8954 448.105 39 447 39H439ZM453 41C453 39.8954 453.895 39 455 39H463C464.105 39 465 39.8954 465 41V49C465 50.1046 464.105 51 463 51H455C453.895 51 453 50.1046 453 49V41ZM5 57C5 55.8954 5.89543 55 7 55H15C16.1046 55 17 55.8954 17 57V65C17 66.1046 16.1046 67 15 67H7C5.89543 67 5 66.1046 5 65V57ZM21 57C21 55.8954 21.8954 55 23 55H31C32.1046 55 33 55.8954 33 57V65C33 66.1046 32.1046 67 31 67H23C21.8954 67 21 66.1046 21 65V57ZM39 55C37.8954 55 37 55.8954 37 57V65C37 66.1046 37.8954 67 39 67H47C48.1046 67 49 66.1046 49 65V57C49 55.8954 48.1046 55 47 55H39ZM53 57C53 55.8954 53.8954 55 55 55H63C64.1046 55 65 55.8954 65 57V65C65 66.1046 64.1046 67 63 67H55C53.8954 67 53 66.1046 53 65V57ZM71 55C69.8954 55 69 55.8954 69 57V65C69 66.1046 69.8954 67 71 67H79C80.1046 67 81 66.1046 81 65V57C81 55.8954 80.1046 55 79 55H71ZM85 57C85 55.8954 85.8954 55 87 55H95C96.1046 55 97 55.8954 97 57V65C97 66.1046 96.1046 67 95 67H87C85.8954 67 85 66.1046 85 65V57ZM103 55C101.895 55 101 55.8954 101 57V65C101 66.1046 101.895 67 103 67H111C112.105 67 113 66.1046 113 65V57C113 55.8954 112.105 55 111 55H103ZM117 57C117 55.8954 117.895 55 119 55H127C128.105 55 129 55.8954 129 57V65C129 66.1046 128.105 67 127 67H119C117.895 67 117 66.1046 117 65V57ZM135 55C133.895 55 133 55.8954 133 57V65C133 66.1046 133.895 67 135 67H143C144.105 67 145 66.1046 145 65V57C145 55.8954 144.105 55 143 55H135ZM149 57C149 55.8954 149.895 55 151 55H159C160.105 55 161 55.8954 161 57V65C161 66.1046 160.105 67 159 67H151C149.895 67 149 66.1046 149 65V57ZM167 55C165.895 55 165 55.8954 165 57V65C165 66.1046 165.895 67 167 67H175C176.105 67 177 66.1046 177 65V57C177 55.8954 176.105 55 175 55H167ZM181 57C181 55.8954 181.895 55 183 55H191C192.105 55 193 55.8954 193 57V65C193 66.1046 192.105 67 191 67H183C181.895 67 181 66.1046 181 65V57ZM199 55C197.895 55 197 55.8954 197 57V65C197 66.1046 197.895 67 199 67H207C208.105 67 209 66.1046 209 65V57C209 55.8954 208.105 55 207 55H199ZM213 57C213 55.8954 213.895 55 215 55H223C224.105 55 225 55.8954 225 57V65C225 66.1046 224.105 67 223 67H215C213.895 67 213 66.1046 213 65V57ZM231 55C229.895 55 229 55.8954 229 57V65C229 66.1046 229.895 67 231 67H239C240.105 67 241 66.1046 241 65V57C241 55.8954 240.105 55 239 55H231ZM245 57C245 55.8954 245.895 55 247 55H255C256.105 55 257 55.8954 257 57V65C257 66.1046 256.105 67 255 67H247C245.895 67 245 66.1046 245 65V57ZM263 55C261.895 55 261 55.8954 261 57V65C261 66.1046 261.895 67 263 67H271C272.105 67 273 66.1046 273 65V57C273 55.8954 272.105 55 271 55H263ZM277 57C277 55.8954 277.895 55 279 55H287C288.105 55 289 55.8954 289 57V65C289 66.1046 288.105 67 287 67H279C277.895 67 277 66.1046 277 65V57ZM295 55C293.895 55 293 55.8954 293 57V65C293 66.1046 293.895 67 295 67H303C304.105 67 305 66.1046 305 65V57C305 55.8954 304.105 55 303 55H295ZM309 57C309 55.8954 309.895 55 311 55H319C320.105 55 321 55.8954 321 57V65C321 66.1046 320.105 67 319 67H311C309.895 67 309 66.1046 309 65V57ZM327 55C325.895 55 325 55.8954 325 57V65C325 66.1046 325.895 67 327 67H335C336.105 67 337 66.1046 337 65V57C337 55.8954 336.105 55 335 55H327ZM341 57C341 55.8954 341.895 55 343 55H351C352.105 55 353 55.8954 353 57V65C353 66.1046 352.105 67 351 67H343C341.895 67 341 66.1046 341 65V57ZM359 55C357.895 55 357 55.8954 357 57V65C357 66.1046 357.895 67 359 67H367C368.105 67 369 66.1046 369 65V57C369 55.8954 368.105 55 367 55H359ZM373 57C373 55.8954 373.895 55 375 55H383C384.105 55 385 55.8954 385 57V65C385 66.1046 384.105 67 383 67H375C373.895 67 373 66.1046 373 65V57ZM391 55C389.895 55 389 55.8954 389 57V65C389 66.1046 389.895 67 391 67H399C400.105 67 401 66.1046 401 65V57C401 55.8954 400.105 55 399 55H391ZM405 57C405 55.8954 405.895 55 407 55H415C416.105 55 417 55.8954 417 57V65C417 66.1046 416.105 67 415 67H407C405.895 67 405 66.1046 405 65V57ZM423 55C421.895 55 421 55.8954 421 57V65C421 66.1046 421.895 67 423 67H431C432.105 67 433 66.1046 433 65V57C433 55.8954 432.105 55 431 55H423ZM437 57C437 55.8954 437.895 55 439 55H447C448.105 55 449 55.8954 449 57V65C449 66.1046 448.105 67 447 67H439C437.895 67 437 66.1046 437 65V57ZM455 55C453.895 55 453 55.8954 453 57V65C453 66.1046 453.895 67 455 67H463C464.105 67 465 66.1046 465 65V57C465 55.8954 464.105 55 463 55H455ZM7 71C5.89543 71 5 71.8954 5 73V81C5 82.1046 5.89543 83 7 83H15C16.1046 83 17 82.1046 17 81V73C17 71.8954 16.1046 71 15 71H7ZM23 71C21.8954 71 21 71.8954 21 73V81C21 82.1046 21.8954 83 23 83H31C32.1046 83 33 82.1046 33 81V73C33 71.8954 32.1046 71 31 71H23ZM37 73C37 71.8954 37.8954 71 39 71H47C48.1046 71 49 71.8954 49 73V81C49 82.1046 48.1046 83 47 83H39C37.8954 83 37 82.1046 37 81V73ZM55 71C53.8954 71 53 71.8954 53 73V81C53 82.1046 53.8954 83 55 83H63C64.1046 83 65 82.1046 65 81V73C65 71.8954 64.1046 71 63 71H55ZM69 73C69 71.8954 69.8954 71 71 71H79C80.1046 71 81 71.8954 81 73V81C81 82.1046 80.1046 83 79 83H71C69.8954 83 69 82.1046 69 81V73ZM87 71C85.8954 71 85 71.8954 85 73V81C85 82.1046 85.8954 83 87 83H95C96.1046 83 97 82.1046 97 81V73C97 71.8954 96.1046 71 95 71H87ZM101 73C101 71.8954 101.895 71 103 71H111C112.105 71 113 71.8954 113 73V81C113 82.1046 112.105 83 111 83H103C101.895 83 101 82.1046 101 81V73ZM119 71C117.895 71 117 71.8954 117 73V81C117 82.1046 117.895 83 119 83H127C128.105 83 129 82.1046 129 81V73C129 71.8954 128.105 71 127 71H119ZM133 73C133 71.8954 133.895 71 135 71H143C144.105 71 145 71.8954 145 73V81C145 82.1046 144.105 83 143 83H135C133.895 83 133 82.1046 133 81V73ZM151 71C149.895 71 149 71.8954 149 73V81C149 82.1046 149.895 83 151 83H159C160.105 83 161 82.1046 161 81V73C161 71.8954 160.105 71 159 71H151ZM165 73C165 71.8954 165.895 71 167 71H175C176.105 71 177 71.8954 177 73V81C177 82.1046 176.105 83 175 83H167C165.895 83 165 82.1046 165 81V73ZM183 71C181.895 71 181 71.8954 181 73V81C181 82.1046 181.895 83 183 83H191C192.105 83 193 82.1046 193 81V73C193 71.8954 192.105 71 191 71H183ZM197 73C197 71.8954 197.895 71 199 71H207C208.105 71 209 71.8954 209 73V81C209 82.1046 208.105 83 207 83H199C197.895 83 197 82.1046 197 81V73ZM215 71C213.895 71 213 71.8954 213 73V81C213 82.1046 213.895 83 215 83H223C224.105 83 225 82.1046 225 81V73C225 71.8954 224.105 71 223 71H215ZM229 73C229 71.8954 229.895 71 231 71H239C240.105 71 241 71.8954 241 73V81C241 82.1046 240.105 83 239 83H231C229.895 83 229 82.1046 229 81V73ZM247 71C245.895 71 245 71.8954 245 73V81C245 82.1046 245.895 83 247 83H255C256.105 83 257 82.1046 257 81V73C257 71.8954 256.105 71 255 71H247ZM261 73C261 71.8954 261.895 71 263 71H271C272.105 71 273 71.8954 273 73V81C273 82.1046 272.105 83 271 83H263C261.895 83 261 82.1046 261 81V73ZM279 71C277.895 71 277 71.8954 277 73V81C277 82.1046 277.895 83 279 83H287C288.105 83 289 82.1046 289 81V73C289 71.8954 288.105 71 287 71H279ZM293 73C293 71.8954 293.895 71 295 71H303C304.105 71 305 71.8954 305 73V81C305 82.1046 304.105 83 303 83H295C293.895 83 293 82.1046 293 81V73ZM311 71C309.895 71 309 71.8954 309 73V81C309 82.1046 309.895 83 311 83H319C320.105 83 321 82.1046 321 81V73C321 71.8954 320.105 71 319 71H311ZM325 73C325 71.8954 325.895 71 327 71H335C336.105 71 337 71.8954 337 73V81C337 82.1046 336.105 83 335 83H327C325.895 83 325 82.1046 325 81V73ZM343 71C341.895 71 341 71.8954 341 73V81C341 82.1046 341.895 83 343 83H351C352.105 83 353 82.1046 353 81V73C353 71.8954 352.105 71 351 71H343ZM357 73C357 71.8954 357.895 71 359 71H367C368.105 71 369 71.8954 369 73V81C369 82.1046 368.105 83 367 83H359C357.895 83 357 82.1046 357 81V73ZM375 71C373.895 71 373 71.8954 373 73V81C373 82.1046 373.895 83 375 83H383C384.105 83 385 82.1046 385 81V73C385 71.8954 384.105 71 383 71H375ZM389 73C389 71.8954 389.895 71 391 71H399C400.105 71 401 71.8954 401 73V81C401 82.1046 400.105 83 399 83H391C389.895 83 389 82.1046 389 81V73ZM407 71C405.895 71 405 71.8954 405 73V81C405 82.1046 405.895 83 407 83H415C416.105 83 417 82.1046 417 81V73C417 71.8954 416.105 71 415 71H407ZM421 73C421 71.8954 421.895 71 423 71H431C432.105 71 433 71.8954 433 73V81C433 82.1046 432.105 83 431 83H423C421.895 83 421 82.1046 421 81V73ZM439 71C437.895 71 437 71.8954 437 73V81C437 82.1046 437.895 83 439 83H447C448.105 83 449 82.1046 449 81V73C449 71.8954 448.105 71 447 71H439ZM453 73C453 71.8954 453.895 71 455 71H463C464.105 71 465 71.8954 465 73V81C465 82.1046 464.105 83 463 83H455C453.895 83 453 82.1046 453 81V73ZM5 89C5 87.8954 5.89543 87 7 87H15C16.1046 87 17 87.8954 17 89V97C17 98.1046 16.1046 99 15 99H7C5.89543 99 5 98.1046 5 97V89ZM21 89C21 87.8954 21.8954 87 23 87H31C32.1046 87 33 87.8954 33 89V97C33 98.1046 32.1046 99 31 99H23C21.8954 99 21 98.1046 21 97V89ZM39 87C37.8954 87 37 87.8954 37 89V97C37 98.1046 37.8954 99 39 99H47C48.1046 99 49 98.1046 49 97V89C49 87.8954 48.1046 87 47 87H39ZM53 89C53 87.8954 53.8954 87 55 87H63C64.1046 87 65 87.8954 65 89V97C65 98.1046 64.1046 99 63 99H55C53.8954 99 53 98.1046 53 97V89ZM71 87C69.8954 87 69 87.8954 69 89V97C69 98.1046 69.8954 99 71 99H79C80.1046 99 81 98.1046 81 97V89C81 87.8954 80.1046 87 79 87H71ZM85 89C85 87.8954 85.8954 87 87 87H95C96.1046 87 97 87.8954 97 89V97C97 98.1046 96.1046 99 95 99H87C85.8954 99 85 98.1046 85 97V89ZM103 87C101.895 87 101 87.8954 101 89V97C101 98.1046 101.895 99 103 99H111C112.105 99 113 98.1046 113 97V89C113 87.8954 112.105 87 111 87H103ZM117 89C117 87.8954 117.895 87 119 87H127C128.105 87 129 87.8954 129 89V97C129 98.1046 128.105 99 127 99H119C117.895 99 117 98.1046 117 97V89ZM135 87C133.895 87 133 87.8954 133 89V97C133 98.1046 133.895 99 135 99H143C144.105 99 145 98.1046 145 97V89C145 87.8954 144.105 87 143 87H135ZM149 89C149 87.8954 149.895 87 151 87H159C160.105 87 161 87.8954 161 89V97C161 98.1046 160.105 99 159 99H151C149.895 99 149 98.1046 149 97V89ZM167 87C165.895 87 165 87.8954 165 89V97C165 98.1046 165.895 99 167 99H175C176.105 99 177 98.1046 177 97V89C177 87.8954 176.105 87 175 87H167ZM181 89C181 87.8954 181.895 87 183 87H191C192.105 87 193 87.8954 193 89V97C193 98.1046 192.105 99 191 99H183C181.895 99 181 98.1046 181 97V89ZM199 87C197.895 87 197 87.8954 197 89V97C197 98.1046 197.895 99 199 99H207C208.105 99 209 98.1046 209 97V89C209 87.8954 208.105 87 207 87H199ZM213 89C213 87.8954 213.895 87 215 87H223C224.105 87 225 87.8954 225 89V97C225 98.1046 224.105 99 223 99H215C213.895 99 213 98.1046 213 97V89ZM231 87C229.895 87 229 87.8954 229 89V97C229 98.1046 229.895 99 231 99H239C240.105 99 241 98.1046 241 97V89C241 87.8954 240.105 87 239 87H231ZM245 89C245 87.8954 245.895 87 247 87H255C256.105 87 257 87.8954 257 89V97C257 98.1046 256.105 99 255 99H247C245.895 99 245 98.1046 245 97V89ZM263 87C261.895 87 261 87.8954 261 89V97C261 98.1046 261.895 99 263 99H271C272.105 99 273 98.1046 273 97V89C273 87.8954 272.105 87 271 87H263ZM277 89C277 87.8954 277.895 87 279 87H287C288.105 87 289 87.8954 289 89V97C289 98.1046 288.105 99 287 99H279C277.895 99 277 98.1046 277 97V89ZM295 87C293.895 87 293 87.8954 293 89V97C293 98.1046 293.895 99 295 99H303C304.105 99 305 98.1046 305 97V89C305 87.8954 304.105 87 303 87H295ZM309 89C309 87.8954 309.895 87 311 87H319C320.105 87 321 87.8954 321 89V97C321 98.1046 320.105 99 319 99H311C309.895 99 309 98.1046 309 97V89ZM327 87C325.895 87 325 87.8954 325 89V97C325 98.1046 325.895 99 327 99H335C336.105 99 337 98.1046 337 97V89C337 87.8954 336.105 87 335 87H327ZM341 89C341 87.8954 341.895 87 343 87H351C352.105 87 353 87.8954 353 89V97C353 98.1046 352.105 99 351 99H343C341.895 99 341 98.1046 341 97V89ZM359 87C357.895 87 357 87.8954 357 89V97C357 98.1046 357.895 99 359 99H367C368.105 99 369 98.1046 369 97V89C369 87.8954 368.105 87 367 87H359ZM373 89C373 87.8954 373.895 87 375 87H383C384.105 87 385 87.8954 385 89V97C385 98.1046 384.105 99 383 99H375C373.895 99 373 98.1046 373 97V89ZM391 87C389.895 87 389 87.8954 389 89V97C389 98.1046 389.895 99 391 99H399C400.105 99 401 98.1046 401 97V89C401 87.8954 400.105 87 399 87H391ZM405 89C405 87.8954 405.895 87 407 87H415C416.105 87 417 87.8954 417 89V97C417 98.1046 416.105 99 415 99H407C405.895 99 405 98.1046 405 97V89ZM423 87C421.895 87 421 87.8954 421 89V97C421 98.1046 421.895 99 423 99H431C432.105 99 433 98.1046 433 97V89C433 87.8954 432.105 87 431 87H423ZM437 89C437 87.8954 437.895 87 439 87H447C448.105 87 449 87.8954 449 89V97C449 98.1046 448.105 99 447 99H439C437.895 99 437 98.1046 437 97V89ZM455 87C453.895 87 453 87.8954 453 89V97C453 98.1046 453.895 99 455 99H463C464.105 99 465 98.1046 465 97V89C465 87.8954 464.105 87 463 87H455ZM7 103C5.89543 103 5 103.895 5 105V113C5 114.105 5.89543 115 7 115H15C16.1046 115 17 114.105 17 113V105C17 103.895 16.1046 103 15 103H7ZM23 103C21.8954 103 21 103.895 21 105V113C21 114.105 21.8954 115 23 115H31C32.1046 115 33 114.105 33 113V105C33 103.895 32.1046 103 31 103H23ZM37 105C37 103.895 37.8954 103 39 103H47C48.1046 103 49 103.895 49 105V113C49 114.105 48.1046 115 47 115H39C37.8954 115 37 114.105 37 113V105ZM55 103C53.8954 103 53 103.895 53 105V113C53 114.105 53.8954 115 55 115H63C64.1046 115 65 114.105 65 113V105C65 103.895 64.1046 103 63 103H55ZM69 105C69 103.895 69.8954 103 71 103H79C80.1046 103 81 103.895 81 105V113C81 114.105 80.1046 115 79 115H71C69.8954 115 69 114.105 69 113V105ZM87 103C85.8954 103 85 103.895 85 105V113C85 114.105 85.8954 115 87 115H95C96.1046 115 97 114.105 97 113V105C97 103.895 96.1046 103 95 103H87ZM101 105C101 103.895 101.895 103 103 103H111C112.105 103 113 103.895 113 105V113C113 114.105 112.105 115 111 115H103C101.895 115 101 114.105 101 113V105ZM119 103C117.895 103 117 103.895 117 105V113C117 114.105 117.895 115 119 115H127C128.105 115 129 114.105 129 113V105C129 103.895 128.105 103 127 103H119ZM133 105C133 103.895 133.895 103 135 103H143C144.105 103 145 103.895 145 105V113C145 114.105 144.105 115 143 115H135C133.895 115 133 114.105 133 113V105ZM151 103C149.895 103 149 103.895 149 105V113C149 114.105 149.895 115 151 115H159C160.105 115 161 114.105 161 113V105C161 103.895 160.105 103 159 103H151ZM165 105C165 103.895 165.895 103 167 103H175C176.105 103 177 103.895 177 105V113C177 114.105 176.105 115 175 115H167C165.895 115 165 114.105 165 113V105ZM183 103C181.895 103 181 103.895 181 105V113C181 114.105 181.895 115 183 115H191C192.105 115 193 114.105 193 113V105C193 103.895 192.105 103 191 103H183ZM197 105C197 103.895 197.895 103 199 103H207C208.105 103 209 103.895 209 105V113C209 114.105 208.105 115 207 115H199C197.895 115 197 114.105 197 113V105ZM215 103C213.895 103 213 103.895 213 105V113C213 114.105 213.895 115 215 115H223C224.105 115 225 114.105 225 113V105C225 103.895 224.105 103 223 103H215ZM229 105C229 103.895 229.895 103 231 103H239C240.105 103 241 103.895 241 105V113C241 114.105 240.105 115 239 115H231C229.895 115 229 114.105 229 113V105ZM247 103C245.895 103 245 103.895 245 105V113C245 114.105 245.895 115 247 115H255C256.105 115 257 114.105 257 113V105C257 103.895 256.105 103 255 103H247ZM261 105C261 103.895 261.895 103 263 103H271C272.105 103 273 103.895 273 105V113C273 114.105 272.105 115 271 115H263C261.895 115 261 114.105 261 113V105ZM279 103C277.895 103 277 103.895 277 105V113C277 114.105 277.895 115 279 115H287C288.105 115 289 114.105 289 113V105C289 103.895 288.105 103 287 103H279ZM293 105C293 103.895 293.895 103 295 103H303C304.105 103 305 103.895 305 105V113C305 114.105 304.105 115 303 115H295C293.895 115 293 114.105 293 113V105ZM311 103C309.895 103 309 103.895 309 105V113C309 114.105 309.895 115 311 115H319C320.105 115 321 114.105 321 113V105C321 103.895 320.105 103 319 103H311ZM325 105C325 103.895 325.895 103 327 103H335C336.105 103 337 103.895 337 105V113C337 114.105 336.105 115 335 115H327C325.895 115 325 114.105 325 113V105ZM343 103C341.895 103 341 103.895 341 105V113C341 114.105 341.895 115 343 115H351C352.105 115 353 114.105 353 113V105C353 103.895 352.105 103 351 103H343ZM357 105C357 103.895 357.895 103 359 103H367C368.105 103 369 103.895 369 105V113C369 114.105 368.105 115 367 115H359C357.895 115 357 114.105 357 113V105ZM375 103C373.895 103 373 103.895 373 105V113C373 114.105 373.895 115 375 115H383C384.105 115 385 114.105 385 113V105C385 103.895 384.105 103 383 103H375ZM389 105C389 103.895 389.895 103 391 103H399C400.105 103 401 103.895 401 105V113C401 114.105 400.105 115 399 115H391C389.895 115 389 114.105 389 113V105ZM407 103C405.895 103 405 103.895 405 105V113C405 114.105 405.895 115 407 115H415C416.105 115 417 114.105 417 113V105C417 103.895 416.105 103 415 103H407ZM421 105C421 103.895 421.895 103 423 103H431C432.105 103 433 103.895 433 105V113C433 114.105 432.105 115 431 115H423C421.895 115 421 114.105 421 113V105ZM439 103C437.895 103 437 103.895 437 105V113C437 114.105 437.895 115 439 115H447C448.105 115 449 114.105 449 113V105C449 103.895 448.105 103 447 103H439ZM453 105C453 103.895 453.895 103 455 103H463C464.105 103 465 103.895 465 105V113C465 114.105 464.105 115 463 115H455C453.895 115 453 114.105 453 113V105ZM5 121C5 119.895 5.89543 119 7 119H15C16.1046 119 17 119.895 17 121V129C17 130.105 16.1046 131 15 131H7C5.89543 131 5 130.105 5 129V121ZM21 121C21 119.895 21.8954 119 23 119H31C32.1046 119 33 119.895 33 121V129C33 130.105 32.1046 131 31 131H23C21.8954 131 21 130.105 21 129V121ZM39 119C37.8954 119 37 119.895 37 121V129C37 130.105 37.8954 131 39 131H47C48.1046 131 49 130.105 49 129V121C49 119.895 48.1046 119 47 119H39ZM53 121C53 119.895 53.8954 119 55 119H63C64.1046 119 65 119.895 65 121V129C65 130.105 64.1046 131 63 131H55C53.8954 131 53 130.105 53 129V121ZM71 119C69.8954 119 69 119.895 69 121V129C69 130.105 69.8954 131 71 131H79C80.1046 131 81 130.105 81 129V121C81 119.895 80.1046 119 79 119H71ZM85 121C85 119.895 85.8954 119 87 119H95C96.1046 119 97 119.895 97 121V129C97 130.105 96.1046 131 95 131H87C85.8954 131 85 130.105 85 129V121ZM103 119C101.895 119 101 119.895 101 121V129C101 130.105 101.895 131 103 131H111C112.105 131 113 130.105 113 129V121C113 119.895 112.105 119 111 119H103ZM117 121C117 119.895 117.895 119 119 119H127C128.105 119 129 119.895 129 121V129C129 130.105 128.105 131 127 131H119C117.895 131 117 130.105 117 129V121ZM135 119C133.895 119 133 119.895 133 121V129C133 130.105 133.895 131 135 131H143C144.105 131 145 130.105 145 129V121C145 119.895 144.105 119 143 119H135ZM149 121C149 119.895 149.895 119 151 119H159C160.105 119 161 119.895 161 121V129C161 130.105 160.105 131 159 131H151C149.895 131 149 130.105 149 129V121ZM167 119C165.895 119 165 119.895 165 121V129C165 130.105 165.895 131 167 131H175C176.105 131 177 130.105 177 129V121C177 119.895 176.105 119 175 119H167ZM181 121C181 119.895 181.895 119 183 119H191C192.105 119 193 119.895 193 121V129C193 130.105 192.105 131 191 131H183C181.895 131 181 130.105 181 129V121ZM199 119C197.895 119 197 119.895 197 121V129C197 130.105 197.895 131 199 131H207C208.105 131 209 130.105 209 129V121C209 119.895 208.105 119 207 119H199ZM213 121C213 119.895 213.895 119 215 119H223C224.105 119 225 119.895 225 121V129C225 130.105 224.105 131 223 131H215C213.895 131 213 130.105 213 129V121ZM231 119C229.895 119 229 119.895 229 121V129C229 130.105 229.895 131 231 131H239C240.105 131 241 130.105 241 129V121C241 119.895 240.105 119 239 119H231ZM245 121C245 119.895 245.895 119 247 119H255C256.105 119 257 119.895 257 121V129C257 130.105 256.105 131 255 131H247C245.895 131 245 130.105 245 129V121ZM263 119C261.895 119 261 119.895 261 121V129C261 130.105 261.895 131 263 131H271C272.105 131 273 130.105 273 129V121C273 119.895 272.105 119 271 119H263ZM277 121C277 119.895 277.895 119 279 119H287C288.105 119 289 119.895 289 121V129C289 130.105 288.105 131 287 131H279C277.895 131 277 130.105 277 129V121ZM295 119C293.895 119 293 119.895 293 121V129C293 130.105 293.895 131 295 131H303C304.105 131 305 130.105 305 129V121C305 119.895 304.105 119 303 119H295ZM309 121C309 119.895 309.895 119 311 119H319C320.105 119 321 119.895 321 121V129C321 130.105 320.105 131 319 131H311C309.895 131 309 130.105 309 129V121ZM327 119C325.895 119 325 119.895 325 121V129C325 130.105 325.895 131 327 131H335C336.105 131 337 130.105 337 129V121C337 119.895 336.105 119 335 119H327ZM341 121C341 119.895 341.895 119 343 119H351C352.105 119 353 119.895 353 121V129C353 130.105 352.105 131 351 131H343C341.895 131 341 130.105 341 129V121ZM359 119C357.895 119 357 119.895 357 121V129C357 130.105 357.895 131 359 131H367C368.105 131 369 130.105 369 129V121C369 119.895 368.105 119 367 119H359ZM373 121C373 119.895 373.895 119 375 119H383C384.105 119 385 119.895 385 121V129C385 130.105 384.105 131 383 131H375C373.895 131 373 130.105 373 129V121ZM391 119C389.895 119 389 119.895 389 121V129C389 130.105 389.895 131 391 131H399C400.105 131 401 130.105 401 129V121C401 119.895 400.105 119 399 119H391ZM405 121C405 119.895 405.895 119 407 119H415C416.105 119 417 119.895 417 121V129C417 130.105 416.105 131 415 131H407C405.895 131 405 130.105 405 129V121ZM423 119C421.895 119 421 119.895 421 121V129C421 130.105 421.895 131 423 131H431C432.105 131 433 130.105 433 129V121C433 119.895 432.105 119 431 119H423ZM437 121C437 119.895 437.895 119 439 119H447C448.105 119 449 119.895 449 121V129C449 130.105 448.105 131 447 131H439C437.895 131 437 130.105 437 129V121ZM455 119C453.895 119 453 119.895 453 121V129C453 130.105 453.895 131 455 131H463C464.105 131 465 130.105 465 129V121C465 119.895 464.105 119 463 119H455ZM7 135C5.89543 135 5 135.895 5 137V145C5 146.105 5.89543 147 7 147H15C16.1046 147 17 146.105 17 145V137C17 135.895 16.1046 135 15 135H7ZM23 135C21.8954 135 21 135.895 21 137V145C21 146.105 21.8954 147 23 147H31C32.1046 147 33 146.105 33 145V137C33 135.895 32.1046 135 31 135H23ZM37 137C37 135.895 37.8954 135 39 135H47C48.1046 135 49 135.895 49 137V145C49 146.105 48.1046 147 47 147H39C37.8954 147 37 146.105 37 145V137ZM55 135C53.8954 135 53 135.895 53 137V145C53 146.105 53.8954 147 55 147H63C64.1046 147 65 146.105 65 145V137C65 135.895 64.1046 135 63 135H55ZM69 137C69 135.895 69.8954 135 71 135H79C80.1046 135 81 135.895 81 137V145C81 146.105 80.1046 147 79 147H71C69.8954 147 69 146.105 69 145V137ZM87 135C85.8954 135 85 135.895 85 137V145C85 146.105 85.8954 147 87 147H95C96.1046 147 97 146.105 97 145V137C97 135.895 96.1046 135 95 135H87ZM101 137C101 135.895 101.895 135 103 135H111C112.105 135 113 135.895 113 137V145C113 146.105 112.105 147 111 147H103C101.895 147 101 146.105 101 145V137ZM119 135C117.895 135 117 135.895 117 137V145C117 146.105 117.895 147 119 147H127C128.105 147 129 146.105 129 145V137C129 135.895 128.105 135 127 135H119ZM133 137C133 135.895 133.895 135 135 135H143C144.105 135 145 135.895 145 137V145C145 146.105 144.105 147 143 147H135C133.895 147 133 146.105 133 145V137ZM151 135C149.895 135 149 135.895 149 137V145C149 146.105 149.895 147 151 147H159C160.105 147 161 146.105 161 145V137C161 135.895 160.105 135 159 135H151ZM165 137C165 135.895 165.895 135 167 135H175C176.105 135 177 135.895 177 137V145C177 146.105 176.105 147 175 147H167C165.895 147 165 146.105 165 145V137ZM183 135C181.895 135 181 135.895 181 137V145C181 146.105 181.895 147 183 147H191C192.105 147 193 146.105 193 145V137C193 135.895 192.105 135 191 135H183ZM197 137C197 135.895 197.895 135 199 135H207C208.105 135 209 135.895 209 137V145C209 146.105 208.105 147 207 147H199C197.895 147 197 146.105 197 145V137ZM215 135C213.895 135 213 135.895 213 137V145C213 146.105 213.895 147 215 147H223C224.105 147 225 146.105 225 145V137C225 135.895 224.105 135 223 135H215ZM229 137C229 135.895 229.895 135 231 135H239C240.105 135 241 135.895 241 137V145C241 146.105 240.105 147 239 147H231C229.895 147 229 146.105 229 145V137ZM247 135C245.895 135 245 135.895 245 137V145C245 146.105 245.895 147 247 147H255C256.105 147 257 146.105 257 145V137C257 135.895 256.105 135 255 135H247ZM261 137C261 135.895 261.895 135 263 135H271C272.105 135 273 135.895 273 137V145C273 146.105 272.105 147 271 147H263C261.895 147 261 146.105 261 145V137ZM279 135C277.895 135 277 135.895 277 137V145C277 146.105 277.895 147 279 147H287C288.105 147 289 146.105 289 145V137C289 135.895 288.105 135 287 135H279ZM293 137C293 135.895 293.895 135 295 135H303C304.105 135 305 135.895 305 137V145C305 146.105 304.105 147 303 147H295C293.895 147 293 146.105 293 145V137ZM311 135C309.895 135 309 135.895 309 137V145C309 146.105 309.895 147 311 147H319C320.105 147 321 146.105 321 145V137C321 135.895 320.105 135 319 135H311ZM325 137C325 135.895 325.895 135 327 135H335C336.105 135 337 135.895 337 137V145C337 146.105 336.105 147 335 147H327C325.895 147 325 146.105 325 145V137ZM343 135C341.895 135 341 135.895 341 137V145C341 146.105 341.895 147 343 147H351C352.105 147 353 146.105 353 145V137C353 135.895 352.105 135 351 135H343ZM357 137C357 135.895 357.895 135 359 135H367C368.105 135 369 135.895 369 137V145C369 146.105 368.105 147 367 147H359C357.895 147 357 146.105 357 145V137ZM375 135C373.895 135 373 135.895 373 137V145C373 146.105 373.895 147 375 147H383C384.105 147 385 146.105 385 145V137C385 135.895 384.105 135 383 135H375ZM389 137C389 135.895 389.895 135 391 135H399C400.105 135 401 135.895 401 137V145C401 146.105 400.105 147 399 147H391C389.895 147 389 146.105 389 145V137ZM407 135C405.895 135 405 135.895 405 137V145C405 146.105 405.895 147 407 147H415C416.105 147 417 146.105 417 145V137C417 135.895 416.105 135 415 135H407ZM421 137C421 135.895 421.895 135 423 135H431C432.105 135 433 135.895 433 137V145C433 146.105 432.105 147 431 147H423C421.895 147 421 146.105 421 145V137ZM439 135C437.895 135 437 135.895 437 137V145C437 146.105 437.895 147 439 147H447C448.105 147 449 146.105 449 145V137C449 135.895 448.105 135 447 135H439ZM453 137C453 135.895 453.895 135 455 135H463C464.105 135 465 135.895 465 137V145C465 146.105 464.105 147 463 147H455C453.895 147 453 146.105 453 145V137Z" fill="white" fill-opacity="0.05"/>
<g filter="url(#filter0_d_1510_18759)">
<path fill-rule="evenodd" clip-rule="evenodd" d="M263 71C261.895 71 261 71.8954 261 73V81C261 82.1046 261.895 83 263 83H271C272.105 83 273 82.1046 273 81V73C273 71.8954 272.105 71 271 71H263ZM263 87C261.895 87 261 87.8954 261 89V97C261 98.1046 261.895 99 263 99H271C272.105 99 273 98.1046 273 97V89C273 87.8954 272.105 87 271 87H263ZM277 73C277 71.8954 277.895 71 279 71H287C288.105 71 289 71.8954 289 73V81C289 82.1046 288.105 83 287 83H279C277.895 83 277 82.1046 277 81V73ZM279 87C277.895 87 277 87.8954 277 89V97C277 98.1046 277.895 99 279 99H287C288.105 99 289 98.1046 289 97V89C289 87.8954 288.105 87 287 87H279Z" fill="#E5FF46"/>
</g>
</g>
</g>
<defs>
<filter id="filter0_d_1510_18759" x="231" y="41" width="88" height="88" filterUnits="userSpaceOnUse" color-interpolation-filters="sRGB">
<feFlood flood-opacity="0" result="BackgroundImageFix"/>
<feColorMatrix in="SourceAlpha" type="matrix" values="0 0 0 0 0 0 0 0 0 0 0 0 0 0 0 0 0 0 127 0" result="hardAlpha"/>
<feOffset/>
<feGaussianBlur stdDeviation="15"/>
<feComposite in2="hardAlpha" operator="out"/>
<feColorMatrix type="matrix" values="0 0 0 0 0.592157 0 0 0 0 0.72549 0 0 0 0 1 0 0 0 0.5 0"/>
<feBlend mode="normal" in2="BackgroundImageFix" result="effect1_dropShadow_1510_18759"/>
<feBlend mode="normal" in="SourceGraphic" in2="effect1_dropShadow_1510_18759" result="shape"/>
</filter>
<radialGradient id="paint0_radial_1510_18759" cx="0" cy="0" r="1" gradientUnits="userSpaceOnUse" gradientTransform="translate(235 77) scale(235 77)">
<stop offset="0.4" stop-color="white"/>
<stop offset="1" stop-color="#999999" stop-opacity="0"/>
</radialGradient>
<clipPath id="clip0_1510_18759">
<rect width="470" height="154" fill="white"/>
</clipPath>
</defs>
</svg>
