<svg width="56" height="56" viewBox="0 0 56 56" fill="none" xmlns="http://www.w3.org/2000/svg">
<path d="M0 7.72414C0 3.45822 3.45821 0 7.72414 0H48.2759C52.5418 0 56 3.45821 56 7.72414V28V48.2759C56 52.5418 52.5418 56 48.2759 56H7.72414C3.45822 56 0 52.5418 0 48.2759V28V7.72414Z" fill="#121212"/>
<path fill-rule="evenodd" clip-rule="evenodd" d="M19.9849 27.8264C19.9849 27.8245 19.9858 27.8227 19.9874 27.8216L37.8572 15.4367C38.3539 15.0924 37.9662 14.3201 37.3934 14.5128L15.5124 21.874C15.0697 22.0256 14.5966 22.5184 14.5072 22.9808C14.4223 23.4432 14.5618 23.8966 14.8999 24.2347L18.3628 27.6976C18.7972 28.132 19.4824 28.1901 19.9826 27.8313C19.9841 27.8302 19.985 27.8283 19.9849 27.8264V27.8264ZM19.5889 34.6202C19.5738 34.8916 19.6784 35.16 19.88 35.3465C20.0817 35.533 20.35 35.6179 20.6214 35.5875L23.6568 35.1974C24.4187 35.0994 25.1135 34.7113 25.5964 34.1139L39.5991 16.7904C39.9838 16.3144 39.3765 15.679 38.8836 16.0418L20.99 29.2147C20.2771 29.7395 19.8342 30.5538 19.7809 31.4374L19.589 34.6186L19.5889 34.6202ZM31.7729 41.1023L27.3328 36.4406C27.3326 36.4404 27.3323 36.4405 27.3323 36.4408V36.4408C27.3322 36.441 27.3319 36.4412 27.3317 36.441C26.8971 35.9861 26.8654 35.2814 27.2579 34.7919L40.3381 17.4989C40.6918 17.0312 41.429 17.4122 41.2522 17.9713L34.1275 40.4928C33.9532 40.9901 33.5453 41.3934 33.0298 41.4905C32.5689 41.5799 32.111 41.4404 31.7729 41.1023Z" fill="#E5FF46"/>
</svg>
