<svg width="300" height="300" viewBox="0 0 300 300" fill="none" xmlns="http://www.w3.org/2000/svg">
<g filter="url(#filter0_d_409_40)">
<rect x="100" y="100" width="100" height="100" rx="32" fill="#E5FF46"/>
<path fill-rule="evenodd" clip-rule="evenodd" d="M127.345 137.645C128.45 137.645 129.345 138.541 129.345 139.645V141.463C129.345 142.567 128.45 143.463 127.345 143.463H123.05V159.959C123.05 160.97 123.202 161.745 123.507 162.285C123.826 162.812 124.241 163.172 124.754 163.366C125.266 163.56 125.834 163.657 126.457 163.657C126.928 163.657 127.357 163.622 127.745 163.553C128.246 163.466 128.749 163.782 128.856 164.278L129.553 167.511C129.766 168.501 129.19 169.483 128.202 169.702C127.468 169.869 126.568 169.966 125.501 169.993C123.618 170.049 121.921 169.765 120.411 169.141C118.902 168.504 117.704 167.521 116.817 166.191C115.945 164.862 115.515 163.2 115.529 161.205V143.463H113C111.895 143.463 111 142.567 111 141.463V139.645C111 138.541 111.895 137.645 113 137.645H115.529V132C115.529 130.895 116.425 130 117.529 130H121.05C122.154 130 123.05 130.895 123.05 132V137.645H127.345ZM135.295 169.557C134.19 169.557 133.295 168.661 133.295 167.557V139.645C133.295 138.541 134.19 137.645 135.295 137.645H138.483C139.588 137.645 140.483 138.541 140.483 139.645V142.848C140.483 142.969 140.582 143.068 140.703 143.068C140.795 143.068 140.878 143.01 140.911 142.923C141.581 141.164 142.664 139.786 144.16 138.788C145.698 137.749 147.533 137.23 149.666 137.23C151.827 137.23 153.648 137.756 155.13 138.809C156.581 139.816 157.615 141.182 158.232 142.906C158.266 143.003 158.357 143.068 158.459 143.068C158.556 143.068 158.644 143.008 158.681 142.918C159.394 141.215 160.565 139.852 162.194 138.83C163.883 137.763 165.885 137.23 168.198 137.23C171.134 137.23 173.53 138.158 175.386 140.014C177.242 141.87 178.17 144.578 178.17 148.137V167.557C178.17 168.661 177.275 169.557 176.17 169.557H172.629C171.524 169.557 170.629 168.661 170.629 167.557V149.301C170.629 147.32 170.102 145.873 169.05 144.958C167.997 144.03 166.709 143.566 165.185 143.566C163.371 143.566 161.951 144.134 160.926 145.27C159.915 146.392 159.41 147.853 159.41 149.654V167.557C159.41 168.661 158.514 169.557 157.41 169.557H154.034C152.93 169.557 152.034 168.661 152.034 167.557V148.989C152.034 147.341 151.536 146.025 150.539 145.042C149.555 144.058 148.267 143.566 146.674 143.566C145.594 143.566 144.611 143.843 143.724 144.398C142.838 144.938 142.131 145.706 141.605 146.704C141.079 147.687 140.815 148.837 140.815 150.152V167.557C140.815 168.661 139.92 169.557 138.815 169.557H135.295ZM184.306 160.416C183.201 160.416 182.306 161.312 182.306 162.416V167.558C182.306 168.662 183.201 169.558 184.306 169.558H189.447C190.552 169.558 191.447 168.662 191.447 167.558V162.416C191.447 161.312 190.552 160.416 189.447 160.416H184.306Z" fill="#182641"/>
</g>
<defs>
<filter id="filter0_d_409_40" x="0" y="0" width="300" height="300" filterUnits="userSpaceOnUse" color-interpolation-filters="sRGB">
<feFlood flood-opacity="0" result="BackgroundImageFix"/>
<feColorMatrix in="SourceAlpha" type="matrix" values="0 0 0 0 0 0 0 0 0 0 0 0 0 0 0 0 0 0 127 0" result="hardAlpha"/>
<feOffset/>
<feGaussianBlur stdDeviation="50"/>
<feComposite in2="hardAlpha" operator="out"/>
<feColorMatrix type="matrix" values="0 0 0 0 0.909804 0 0 0 0 1 0 0 0 0 0.368627 0 0 0 0.5 0"/>
<feBlend mode="normal" in2="BackgroundImageFix" result="effect1_dropShadow_409_40"/>
<feBlend mode="normal" in="SourceGraphic" in2="effect1_dropShadow_409_40" result="shape"/>
</filter>
</defs>
</svg>
